<?xml version="1.0" standalone="no"?>
<!DOCTYPE svg PUBLIC "-//W3C//DTD SVG 20010904//EN"
 "http://www.w3.org/TR/2001/REC-SVG-20010904/DTD/svg10.dtd">
<svg version="1.0" xmlns="http://www.w3.org/2000/svg"
 width="1024.000000pt" height="1024.000000pt" viewBox="0 0 1024.000000 1024.000000"
 preserveAspectRatio="xMidYMid meet">

<g transform="translate(0.000000,1024.000000) scale(0.100000,-0.100000)"
fill="#000000" stroke="none">
<path d="M3355 8574 c-493 -53 -942 -328 -1214 -743 -242 -369 -326 -853 -232
-1338 l17 -91 -48 -42 c-67 -57 -114 -132 -135 -212 -20 -78 -15 -158 42 -621
130 -1048 252 -1418 626 -1892 91 -116 209 -246 471 -519 268 -279 355 -404
409 -586 20 -68 23 -102 27 -380 2 -189 8 -310 14 -318 14 -16 1366 -18 1433
-1 24 6 54 22 67 36 l23 25 3 601 c4 816 -8 978 -89 1174 -91 220 -232 383
-554 643 -271 219 -435 374 -636 601 -76 86 -160 173 -188 193 -113 83 -232
97 -399 45 -9 -3 -61 139 -172 471 -88 261 -178 512 -201 558 -70 142 -174
226 -319 256 -75 15 -68 0 -94 204 -64 500 82 951 408 1260 182 172 394 281
646 332 121 25 341 27 477 5 263 -43 547 -186 828 -419 109 -91 357 -338 447
-446 40 -49 79 -91 87 -95 18 -7 45 19 135 125 406 485 793 753 1198 831 98
19 136 21 288 16 146 -4 191 -9 270 -31 548 -148 911 -544 1017 -1109 23 -123
23 -363 -1 -517 -23 -153 -19 -146 -70 -153 -130 -18 -253 -108 -319 -234 -33
-65 -145 -385 -298 -849 l-69 -212 -43 16 c-28 11 -77 16 -147 16 -99 1 -109
-1 -170 -31 -73 -37 -104 -64 -205 -179 -192 -219 -369 -391 -598 -581 -271
-225 -338 -285 -409 -367 -172 -200 -253 -381 -290 -651 -10 -76 -13 -266 -13
-780 0 -640 1 -682 18 -707 40 -59 32 -58 790 -58 539 0 697 3 710 13 14 11
16 50 19 332 5 363 7 379 94 545 63 119 130 199 408 485 309 319 350 365 487
550 260 351 379 678 468 1285 39 268 86 622 110 837 23 194 18 257 -26 355
-26 60 -110 149 -151 162 -17 6 -20 11 -13 24 15 29 40 181 53 318 28 307 -43
687 -177 953 -294 586 -898 931 -1570 898 -302 -15 -588 -111 -855 -285 -178
-116 -410 -318 -568 -495 l-60 -68 -119 122 c-226 234 -507 450 -716 553 -125
61 -306 120 -447 146 -112 21 -379 34 -475 24z m-1150 -2429 c71 -19 116 -51
149 -108 13 -23 50 -125 81 -227 32 -102 112 -345 178 -540 l121 -355 1 -120
c1 -132 13 -184 71 -312 70 -154 122 -221 387 -507 189 -204 238 -266 297
-382 55 -107 82 -129 156 -129 49 0 57 3 90 37 32 31 38 45 42 91 5 69 -15
116 -113 262 -77 114 -130 177 -324 387 -62 68 -135 152 -162 188 -70 91 -128
212 -142 293 -10 62 -10 72 8 105 25 45 65 66 111 58 27 -6 53 -29 136 -124
216 -248 456 -472 788 -739 96 -77 194 -160 217 -185 113 -124 188 -256 226
-398 22 -84 22 -95 22 -690 l0 -605 -451 -3 -451 -2 -6 167 c-12 320 -75 502
-254 731 -66 85 -141 166 -473 507 -419 431 -578 721 -680 1241 -53 268 -190
1195 -190 1282 0 27 7 45 23 59 40 37 59 39 142 18z m5950 -20 c30 -29 31 -43
5 -222 -10 -76 -38 -273 -60 -438 -109 -794 -148 -975 -265 -1222 -117 -247
-256 -427 -626 -808 -283 -292 -332 -346 -400 -437 -74 -101 -153 -259 -179
-363 -23 -92 -40 -256 -40 -398 l0 -97 -452 2 -453 3 0 615 c0 558 2 621 18
680 55 202 196 393 410 557 281 213 590 502 803 749 101 117 133 144 175 144
28 0 77 -27 89 -49 17 -33 11 -119 -14 -195 -45 -134 -103 -216 -317 -448
-182 -196 -224 -247 -291 -349 -112 -170 -132 -244 -88 -317 26 -43 99 -76
148 -68 49 7 77 38 127 136 51 100 111 175 301 376 285 301 349 390 420 589
26 72 29 93 30 215 l1 135 80 230 c79 223 221 657 262 801 12 39 35 90 52 113
60 84 210 121 264 66z"/>
<path d="M5079 7185 c-70 -17 -159 -98 -239 -215 -13 -19 -25 -37 -26 -39 -2
-2 -29 20 -61 49 -112 103 -224 161 -349 182 -51 9 -67 8 -95 -6 -62 -29 -98
-107 -120 -257 -18 -120 -15 -354 5 -469 71 -401 312 -697 654 -804 46 -14 96
-26 113 -26 l29 0 0 -385 c0 -250 -4 -385 -10 -385 -5 0 -10 7 -10 16 0 9 -17
53 -39 98 -134 287 -384 504 -701 610 -157 52 -396 84 -437 58 -63 -40 0 -357
115 -575 119 -226 335 -419 655 -586 214 -111 288 -172 353 -287 69 -123 74
-167 74 -627 0 -358 2 -413 16 -444 22 -45 73 -83 112 -83 37 0 94 45 110 87
7 18 13 184 15 453 5 460 7 482 63 594 65 131 135 191 333 291 406 203 637
436 754 760 37 103 67 254 67 335 0 68 -1 71 -27 81 -18 7 -65 9 -128 5 -359
-22 -689 -200 -899 -486 -51 -69 -115 -189 -136 -255 -7 -22 -16 -44 -21 -49
-5 -6 -9 155 -9 380 l0 391 67 12 c191 35 390 159 521 324 165 207 244 486
229 806 -12 238 -57 380 -133 416 -100 47 -317 -39 -454 -179 -24 -25 -47 -46
-51 -46 -3 0 -22 24 -41 53 -73 108 -159 187 -224 206 -18 5 -47 4 -75 -4z
m82 -222 c55 -63 127 -182 160 -268 39 -98 44 -105 79 -105 24 0 38 14 95 95
37 52 100 125 139 162 80 76 173 133 181 111 30 -84 43 -321 26 -453 -17 -125
-37 -197 -80 -290 -168 -356 -561 -518 -906 -374 -208 87 -377 292 -442 537
-24 87 -27 115 -27 282 -1 204 13 300 42 300 30 0 138 -78 199 -143 32 -35 84
-100 116 -145 50 -71 61 -82 87 -82 28 0 33 7 83 114 30 63 70 136 88 162 38
56 108 134 119 134 4 0 23 -17 41 -37z m-930 -1701 c52 -26 132 -74 177 -106
97 -70 261 -235 321 -325 46 -67 116 -209 108 -218 -8 -7 -201 102 -302 171
-198 135 -382 351 -429 504 -11 34 17 29 125 -26z m1894 26 c-18 -60 -86 -180
-147 -259 -79 -103 -174 -187 -310 -276 -93 -61 -266 -149 -275 -139 -7 7 55
124 113 214 65 100 201 243 307 323 80 60 267 159 300 159 14 0 17 -5 12 -22z"/>
</g>
</svg>
